<mxfile host="app.diagrams.net" modified="2022-05-13T15:47:51.460Z" agent="5.0 (Windows NT 10.0; Win64; x64) AppleWebKit/537.36 (KHTML, like Gecko) Chrome/101.0.4951.54 Safari/537.36" etag="oSQbFwl7B_wRY2Cpi1fm" version="18.0.3" type="github">
  <diagram id="Pp4UJ4THsJMwEIlvclbV" name="Page-1">
    <mxGraphModel dx="1550" dy="867" grid="1" gridSize="10" guides="1" tooltips="1" connect="1" arrows="1" fold="1" page="1" pageScale="1" pageWidth="1169" pageHeight="827" math="0" shadow="0">
      <root>
        <mxCell id="0" />
        <mxCell id="1" parent="0" />
        <mxCell id="WroV9NoM9GXKldnxKHg1-30" value="" style="whiteSpace=wrap;html=1;aspect=fixed;fontSize=40;" parent="1" vertex="1">
          <mxGeometry x="220" width="720" height="720" as="geometry" />
        </mxCell>
        <mxCell id="Yg4ArwwOmewy4k2MLa1S-1" value="UI" style="shape=umlActor;verticalLabelPosition=bottom;verticalAlign=top;html=1;outlineConnect=0;" parent="1" vertex="1">
          <mxGeometry x="515" y="100" width="30" height="60" as="geometry" />
        </mxCell>
        <mxCell id="Yg4ArwwOmewy4k2MLa1S-2" value="" style="endArrow=none;dashed=1;html=1;dashPattern=1 3;strokeWidth=2;rounded=0;" parent="1" edge="1">
          <mxGeometry width="50" height="50" relative="1" as="geometry">
            <mxPoint x="650" y="150" as="sourcePoint" />
            <mxPoint x="800" y="150" as="targetPoint" />
          </mxGeometry>
        </mxCell>
        <mxCell id="Yg4ArwwOmewy4k2MLa1S-4" value="" style="endArrow=none;dashed=1;html=1;dashPattern=1 3;strokeWidth=2;rounded=0;" parent="1" edge="1">
          <mxGeometry width="50" height="50" relative="1" as="geometry">
            <mxPoint x="320" y="570" as="sourcePoint" />
            <mxPoint x="320" y="410" as="targetPoint" />
          </mxGeometry>
        </mxCell>
        <mxCell id="Yg4ArwwOmewy4k2MLa1S-5" value="" style="endArrow=none;dashed=1;html=1;dashPattern=1 3;strokeWidth=2;rounded=0;" parent="1" edge="1">
          <mxGeometry width="50" height="50" relative="1" as="geometry">
            <mxPoint x="320" y="150" as="sourcePoint" />
            <mxPoint x="500" y="150" as="targetPoint" />
          </mxGeometry>
        </mxCell>
        <mxCell id="Yg4ArwwOmewy4k2MLa1S-6" value="" style="endArrow=none;dashed=1;html=1;dashPattern=1 3;strokeWidth=2;rounded=0;" parent="1" edge="1">
          <mxGeometry width="50" height="50" relative="1" as="geometry">
            <mxPoint x="320" y="570" as="sourcePoint" />
            <mxPoint x="360" y="570" as="targetPoint" />
          </mxGeometry>
        </mxCell>
        <mxCell id="Yg4ArwwOmewy4k2MLa1S-7" value="Trasa UI" style="text;html=1;strokeColor=none;fillColor=none;align=center;verticalAlign=middle;whiteSpace=wrap;rounded=0;" parent="1" vertex="1">
          <mxGeometry x="670" y="630" width="60" height="40" as="geometry" />
        </mxCell>
        <mxCell id="Yg4ArwwOmewy4k2MLa1S-9" value="&lt;font style=&quot;font-size: 20px;&quot;&gt;UI&lt;/font&gt;" style="shape=umlActor;verticalLabelPosition=bottom;verticalAlign=top;html=1;outlineConnect=0;" parent="1" vertex="1">
          <mxGeometry x="830" y="230" width="30" height="60" as="geometry" />
        </mxCell>
        <mxCell id="Yg4ArwwOmewy4k2MLa1S-10" value="&lt;font style=&quot;font-size: 20px;&quot;&gt;Hráč&lt;/font&gt;" style="shape=umlActor;verticalLabelPosition=bottom;verticalAlign=top;html=1;outlineConnect=0;" parent="1" vertex="1">
          <mxGeometry x="730" y="290" width="30" height="60" as="geometry" />
        </mxCell>
        <mxCell id="Yg4ArwwOmewy4k2MLa1S-14" value="" style="endArrow=none;dashed=1;html=1;dashPattern=1 3;strokeWidth=2;rounded=0;fontSize=20;fillColor=#000000;" parent="1" edge="1">
          <mxGeometry width="50" height="50" relative="1" as="geometry">
            <mxPoint x="740" y="650" as="sourcePoint" />
            <mxPoint x="790" y="650" as="targetPoint" />
          </mxGeometry>
        </mxCell>
        <mxCell id="Yg4ArwwOmewy4k2MLa1S-24" value="" style="endArrow=none;dashed=1;html=1;dashPattern=1 3;strokeWidth=2;rounded=0;" parent="1" edge="1">
          <mxGeometry width="50" height="50" relative="1" as="geometry">
            <mxPoint x="720" y="570" as="sourcePoint" />
            <mxPoint x="800" y="569.5" as="targetPoint" />
          </mxGeometry>
        </mxCell>
        <mxCell id="Yg4ArwwOmewy4k2MLa1S-32" value="UI" style="shape=umlActor;verticalLabelPosition=bottom;verticalAlign=top;html=1;outlineConnect=0;fontSize=20;" parent="1" vertex="1">
          <mxGeometry x="240" y="320" width="30" height="60" as="geometry" />
        </mxCell>
        <mxCell id="Yg4ArwwOmewy4k2MLa1S-33" value="" style="shape=flexArrow;endArrow=classic;html=1;rounded=0;fontSize=20;fillColor=#000000;" parent="1" edge="1">
          <mxGeometry width="50" height="50" relative="1" as="geometry">
            <mxPoint x="285" y="349.5" as="sourcePoint" />
            <mxPoint x="370" y="350" as="targetPoint" />
          </mxGeometry>
        </mxCell>
        <mxCell id="Yg4ArwwOmewy4k2MLa1S-38" value="Krytie" style="text;html=1;strokeColor=none;fillColor=none;align=center;verticalAlign=middle;whiteSpace=wrap;rounded=0;fontSize=20;" parent="1" vertex="1">
          <mxGeometry x="290" y="310" width="60" height="30" as="geometry" />
        </mxCell>
        <mxCell id="Yg4ArwwOmewy4k2MLa1S-41" value="" style="endArrow=none;dashed=1;html=1;dashPattern=1 3;strokeWidth=2;rounded=0;" parent="1" edge="1">
          <mxGeometry width="50" height="50" relative="1" as="geometry">
            <mxPoint x="799" y="570" as="sourcePoint" />
            <mxPoint x="800" y="400" as="targetPoint" />
          </mxGeometry>
        </mxCell>
        <mxCell id="Yg4ArwwOmewy4k2MLa1S-42" value="" style="endArrow=none;dashed=1;html=1;dashPattern=1 3;strokeWidth=2;rounded=0;" parent="1" edge="1">
          <mxGeometry width="50" height="50" relative="1" as="geometry">
            <mxPoint x="800" y="230" as="sourcePoint" />
            <mxPoint x="800" y="150" as="targetPoint" />
          </mxGeometry>
        </mxCell>
        <mxCell id="Yg4ArwwOmewy4k2MLa1S-43" value="" style="endArrow=none;dashed=1;html=1;dashPattern=1 3;strokeWidth=2;rounded=0;" parent="1" edge="1">
          <mxGeometry width="50" height="50" relative="1" as="geometry">
            <mxPoint x="320" y="300" as="sourcePoint" />
            <mxPoint x="320" y="150" as="targetPoint" />
          </mxGeometry>
        </mxCell>
        <mxCell id="Yg4ArwwOmewy4k2MLa1S-45" value="" style="shape=parallelogram;perimeter=parallelogramPerimeter;whiteSpace=wrap;html=1;fixedSize=1;fontSize=20;direction=north;flipV=1;" parent="1" vertex="1">
          <mxGeometry x="380" y="290" width="60" height="120" as="geometry" />
        </mxCell>
        <mxCell id="Yg4ArwwOmewy4k2MLa1S-48" value="&lt;font size=&quot;1&quot; style=&quot;&quot;&gt;&lt;b style=&quot;font-size: 26px;&quot;&gt;Priebeh Scény Mŕtve Telo&lt;/b&gt;&lt;/font&gt;" style="text;html=1;strokeColor=none;fillColor=none;align=center;verticalAlign=middle;whiteSpace=wrap;rounded=0;fontSize=20;" parent="1" vertex="1">
          <mxGeometry x="360" y="20" width="410" height="80" as="geometry" />
        </mxCell>
        <mxCell id="WroV9NoM9GXKldnxKHg1-1" value="UI" style="shape=umlActor;verticalLabelPosition=bottom;verticalAlign=top;html=1;outlineConnect=0;" parent="1" vertex="1">
          <mxGeometry x="585" y="100" width="30" height="60" as="geometry" />
        </mxCell>
        <mxCell id="WroV9NoM9GXKldnxKHg1-6" value="&lt;span style=&quot;font-size: 20px;&quot;&gt;Eliminovaná UI&lt;br&gt;Hráčom&lt;br&gt;&lt;/span&gt;" style="shape=umlActor;verticalLabelPosition=bottom;verticalAlign=top;html=1;outlineConnect=0;direction=south;" parent="1" vertex="1">
          <mxGeometry x="820" y="330" width="60" height="30" as="geometry" />
        </mxCell>
        <mxCell id="WroV9NoM9GXKldnxKHg1-12" value="UI" style="shape=umlActor;verticalLabelPosition=bottom;verticalAlign=top;html=1;outlineConnect=0;fontSize=20;" parent="1" vertex="1">
          <mxGeometry x="400" y="540" width="30" height="60" as="geometry" />
        </mxCell>
        <mxCell id="WroV9NoM9GXKldnxKHg1-13" value="" style="shape=flexArrow;endArrow=classic;html=1;rounded=0;fontSize=20;fillColor=#000000;" parent="1" edge="1">
          <mxGeometry width="50" height="50" relative="1" as="geometry">
            <mxPoint x="445" y="569.5" as="sourcePoint" />
            <mxPoint x="535" y="570" as="targetPoint" />
          </mxGeometry>
        </mxCell>
        <mxCell id="WroV9NoM9GXKldnxKHg1-14" value="" style="endArrow=none;html=1;rounded=0;fontSize=20;fillColor=#000000;" parent="1" edge="1">
          <mxGeometry width="50" height="50" relative="1" as="geometry">
            <mxPoint x="360" y="580" as="sourcePoint" />
            <mxPoint x="400" y="580" as="targetPoint" />
          </mxGeometry>
        </mxCell>
        <mxCell id="WroV9NoM9GXKldnxKHg1-15" value="" style="endArrow=none;html=1;rounded=0;fontSize=20;fillColor=#000000;" parent="1" edge="1">
          <mxGeometry width="50" height="50" relative="1" as="geometry">
            <mxPoint x="370" y="570" as="sourcePoint" />
            <mxPoint x="410" y="570" as="targetPoint" />
          </mxGeometry>
        </mxCell>
        <mxCell id="WroV9NoM9GXKldnxKHg1-16" value="" style="endArrow=none;html=1;rounded=0;fontSize=20;fillColor=#000000;" parent="1" edge="1">
          <mxGeometry width="50" height="50" relative="1" as="geometry">
            <mxPoint x="350" y="560" as="sourcePoint" />
            <mxPoint x="390" y="560" as="targetPoint" />
          </mxGeometry>
        </mxCell>
        <mxCell id="WroV9NoM9GXKldnxKHg1-17" value="" style="endArrow=none;html=1;rounded=0;fontSize=20;fillColor=#000000;" parent="1" edge="1">
          <mxGeometry width="50" height="50" relative="1" as="geometry">
            <mxPoint x="360" y="550" as="sourcePoint" />
            <mxPoint x="400" y="550" as="targetPoint" />
          </mxGeometry>
        </mxCell>
        <mxCell id="WroV9NoM9GXKldnxKHg1-18" value="Útek" style="text;html=1;strokeColor=none;fillColor=none;align=center;verticalAlign=middle;whiteSpace=wrap;rounded=0;fontSize=20;" parent="1" vertex="1">
          <mxGeometry x="450" y="530" width="60" height="30" as="geometry" />
        </mxCell>
        <mxCell id="WroV9NoM9GXKldnxKHg1-20" value="&lt;span style=&quot;font-size: 20px;&quot;&gt;Odpadnutie UI&lt;/span&gt;" style="shape=umlActor;verticalLabelPosition=bottom;verticalAlign=top;html=1;outlineConnect=0;direction=south;" parent="1" vertex="1">
          <mxGeometry x="630" y="550" width="60" height="30" as="geometry" />
        </mxCell>
        <mxCell id="WroV9NoM9GXKldnxKHg1-22" value="" style="endArrow=none;html=1;rounded=0;fontSize=40;strokeWidth=4;" parent="1" edge="1">
          <mxGeometry width="50" height="50" relative="1" as="geometry">
            <mxPoint x="560" y="610" as="sourcePoint" />
            <mxPoint x="600" y="530" as="targetPoint" />
          </mxGeometry>
        </mxCell>
        <mxCell id="WroV9NoM9GXKldnxKHg1-26" value="&lt;font style=&quot;font-size: 20px;&quot;&gt;Hráč&lt;/font&gt;" style="shape=umlActor;verticalLabelPosition=bottom;verticalAlign=top;html=1;outlineConnect=0;" parent="1" vertex="1">
          <mxGeometry x="550" y="170" width="30" height="60" as="geometry" />
        </mxCell>
        <mxCell id="WroV9NoM9GXKldnxKHg1-28" value="" style="endArrow=none;html=1;rounded=0;fontSize=40;strokeWidth=4;" parent="1" edge="1">
          <mxGeometry width="50" height="50" relative="1" as="geometry">
            <mxPoint x="750" y="700" as="sourcePoint" />
            <mxPoint x="780" y="670" as="targetPoint" />
          </mxGeometry>
        </mxCell>
        <mxCell id="WroV9NoM9GXKldnxKHg1-29" value="Alebo" style="text;html=1;strokeColor=none;fillColor=none;align=center;verticalAlign=middle;whiteSpace=wrap;rounded=0;" parent="1" vertex="1">
          <mxGeometry x="670" y="670" width="60" height="40" as="geometry" />
        </mxCell>
      </root>
    </mxGraphModel>
  </diagram>
</mxfile>
